<?xml version="1.0" standalone="no"?><!DOCTYPE svg PUBLIC "-//W3C//DTD SVG 1.1//EN" "http://www.w3.org/Graphics/SVG/1.1/DTD/svg11.dtd"><svg t="1555987403476" class="icon" style="" viewBox="0 0 1024 1024" version="1.1" xmlns="http://www.w3.org/2000/svg" p-id="1383" xmlns:xlink="http://www.w3.org/1999/xlink" width="200" height="200"><defs><style type="text/css"></style></defs><path d="M573.980672 16.27477333H450.03025067v560.55671467h123.94496V16.27477333z m222.78417067 92.67882667L710.02794667 195.13344c99.06312533 67.68776533 173.25533867 184.68590933 173.25533866 320.05597867 0 203.177984-166.98026667 369.37181867-371.38705066 369.37181866-204.18833067 0-371.38705067-166.19383467-371.38705067-369.37181866 0-135.37006933 74.41066667-252.36821333 179.53041067-313.89559467L227.24608 108.9536C103.52503467 201.293824 16.78267733 349.00104533 16.78267733 515.18941867c0 270.974976 223.01354667 492.535808 495.108096 492.535808 272.318464 0 495.32654933-221.55537067 495.32654934-492.535808 0.00546133-166.18837333-86.73143467-313.89559467-210.45248-406.23581867z" fill="" p-id="1384"></path></svg>